<svg width="110" height="24" viewBox="0 0 110 24" fill="none" xmlns="http://www.w3.org/2000/svg">
<path d="M8.464 18L6.304 14.88H6.176H3.92V18H1.328V6.8H6.176C7.168 6.8 8.02667 6.96533 8.752 7.296C9.488 7.62667 10.0533 8.096 10.448 8.704C10.8427 9.312 11.04 10.032 11.04 10.864C11.04 11.696 10.8373 12.416 10.432 13.024C10.0373 13.6213 9.472 14.08 8.736 14.4L11.248 18H8.464ZM8.416 10.864C8.416 10.2347 8.21333 9.75467 7.808 9.424C7.40267 9.08267 6.81067 8.912 6.032 8.912H3.92V12.816H6.032C6.81067 12.816 7.40267 12.6453 7.808 12.304C8.21333 11.9627 8.416 11.4827 8.416 10.864ZM21.3496 13.728C21.3496 13.76 21.3336 13.984 21.3016 14.4H14.7896C14.907 14.9333 15.1843 15.3547 15.6216 15.664C16.059 15.9733 16.603 16.128 17.2536 16.128C17.7016 16.128 18.0963 16.064 18.4376 15.936C18.7896 15.7973 19.115 15.584 19.4136 15.296L20.7416 16.736C19.931 17.664 18.747 18.128 17.1896 18.128C16.219 18.128 15.3603 17.9413 14.6136 17.568C13.867 17.184 13.291 16.656 12.8856 15.984C12.4803 15.312 12.2776 14.5493 12.2776 13.696C12.2776 12.8533 12.475 12.096 12.8696 11.424C13.275 10.7413 13.8243 10.2133 14.5176 9.84C15.2216 9.456 16.0056 9.264 16.8696 9.264C17.7123 9.264 18.475 9.44533 19.1576 9.808C19.8403 10.1707 20.3736 10.6933 20.7576 11.376C21.1523 12.048 21.3496 12.832 21.3496 13.728ZM16.8856 11.152C16.3203 11.152 15.8456 11.312 15.4616 11.632C15.0776 11.952 14.843 12.3893 14.7576 12.944H18.9976C18.9123 12.4 18.6776 11.968 18.2936 11.648C17.9096 11.3173 17.4403 11.152 16.8856 11.152ZM26.249 9.264C27.5823 9.264 28.6063 9.584 29.321 10.224C30.0357 10.8533 30.393 11.808 30.393 13.088V18H28.057V16.928C27.5877 17.728 26.713 18.128 25.433 18.128C24.7717 18.128 24.1957 18.016 23.705 17.792C23.225 17.568 22.857 17.2587 22.601 16.864C22.345 16.4693 22.217 16.0213 22.217 15.52C22.217 14.72 22.5157 14.0907 23.113 13.632C23.721 13.1733 24.6543 12.944 25.913 12.944H27.897C27.897 12.4 27.7317 11.984 27.401 11.696C27.0703 11.3973 26.5743 11.248 25.913 11.248C25.4543 11.248 25.001 11.3227 24.553 11.472C24.1157 11.6107 23.7423 11.8027 23.433 12.048L22.537 10.304C23.0063 9.97333 23.5663 9.71733 24.217 9.536C24.8783 9.35467 25.5557 9.264 26.249 9.264ZM26.057 16.448C26.4837 16.448 26.8623 16.352 27.193 16.16C27.5237 15.9573 27.7583 15.664 27.897 15.28V14.4H26.185C25.161 14.4 24.649 14.736 24.649 15.408C24.649 15.728 24.7717 15.984 25.017 16.176C25.273 16.3573 25.6197 16.448 26.057 16.448ZM41.5138 6.128V18H39.1298V17.008C38.5111 17.7547 37.6151 18.128 36.4418 18.128C35.6311 18.128 34.8951 17.9467 34.2338 17.584C33.5831 17.2213 33.0711 16.704 32.6978 16.032C32.3244 15.36 32.1378 14.5813 32.1378 13.696C32.1378 12.8107 32.3244 12.032 32.6978 11.36C33.0711 10.688 33.5831 10.1707 34.2338 9.808C34.8951 9.44533 35.6311 9.264 36.4418 9.264C37.5404 9.264 38.3991 9.61067 39.0178 10.304V6.128H41.5138ZM36.8738 16.08C37.5031 16.08 38.0258 15.8667 38.4418 15.44C38.8578 15.0027 39.0658 14.4213 39.0658 13.696C39.0658 12.9707 38.8578 12.3947 38.4418 11.968C38.0258 11.5307 37.5031 11.312 36.8738 11.312C36.2338 11.312 35.7058 11.5307 35.2898 11.968C34.8738 12.3947 34.6658 12.9707 34.6658 13.696C34.6658 14.4213 34.8738 15.0027 35.2898 15.44C35.7058 15.8667 36.2338 16.08 36.8738 16.08ZM59.3791 9.264C60.4565 9.264 61.3098 9.584 61.9391 10.224C62.5791 10.8533 62.8991 11.8027 62.8991 13.072V18H60.4031V13.456C60.4031 12.7733 60.2591 12.2667 59.9711 11.936C59.6938 11.5947 59.2938 11.424 58.7711 11.424C58.1845 11.424 57.7205 11.616 57.3791 12C57.0378 12.3733 56.8671 12.9333 56.8671 13.68V18H54.3711V13.456C54.3711 12.1013 53.8271 11.424 52.7391 11.424C52.1631 11.424 51.7045 11.616 51.3631 12C51.0218 12.3733 50.8511 12.9333 50.8511 13.68V18H48.3551V9.392H50.7391V10.384C51.0591 10.0213 51.4485 9.744 51.9071 9.552C52.3765 9.36 52.8885 9.264 53.4431 9.264C54.0511 9.264 54.6005 9.38667 55.0911 9.632C55.5818 9.86667 55.9765 10.2133 56.2751 10.672C56.6271 10.224 57.0698 9.87733 57.6031 9.632C58.1471 9.38667 58.7391 9.264 59.3791 9.264ZM69.3261 18.128C68.4195 18.128 67.6035 17.9413 66.8781 17.568C66.1635 17.184 65.6035 16.656 65.1981 15.984C64.7928 15.312 64.5901 14.5493 64.5901 13.696C64.5901 12.8427 64.7928 12.08 65.1981 11.408C65.6035 10.736 66.1635 10.2133 66.8781 9.84C67.6035 9.456 68.4195 9.264 69.3261 9.264C70.2328 9.264 71.0435 9.456 71.7581 9.84C72.4728 10.2133 73.0328 10.736 73.4381 11.408C73.8435 12.08 74.0461 12.8427 74.0461 13.696C74.0461 14.5493 73.8435 15.312 73.4381 15.984C73.0328 16.656 72.4728 17.184 71.7581 17.568C71.0435 17.9413 70.2328 18.128 69.3261 18.128ZM69.3261 16.08C69.9661 16.08 70.4888 15.8667 70.8941 15.44C71.3101 15.0027 71.5181 14.4213 71.5181 13.696C71.5181 12.9707 71.3101 12.3947 70.8941 11.968C70.4888 11.5307 69.9661 11.312 69.3261 11.312C68.6861 11.312 68.1581 11.5307 67.7421 11.968C67.3261 12.3947 67.1181 12.9707 67.1181 13.696C67.1181 14.4213 67.3261 15.0027 67.7421 15.44C68.1581 15.8667 68.6861 16.08 69.3261 16.08ZM78.0985 10.528C78.3972 10.112 78.7972 9.79733 79.2985 9.584C79.8105 9.37067 80.3972 9.264 81.0585 9.264V11.568C80.7812 11.5467 80.5945 11.536 80.4985 11.536C79.7838 11.536 79.2238 11.7387 78.8185 12.144C78.4132 12.5387 78.2105 13.136 78.2105 13.936V18H75.7145V9.392H78.0985V10.528ZM90.8965 13.728C90.8965 13.76 90.8805 13.984 90.8485 14.4H84.3365C84.4538 14.9333 84.7312 15.3547 85.1685 15.664C85.6058 15.9733 86.1498 16.128 86.8005 16.128C87.2485 16.128 87.6432 16.064 87.9845 15.936C88.3365 15.7973 88.6618 15.584 88.9605 15.296L90.2885 16.736C89.4778 17.664 88.2938 18.128 86.7365 18.128C85.7658 18.128 84.9072 17.9413 84.1605 17.568C83.4138 17.184 82.8378 16.656 82.4325 15.984C82.0272 15.312 81.8245 14.5493 81.8245 13.696C81.8245 12.8533 82.0218 12.096 82.4165 11.424C82.8218 10.7413 83.3712 10.2133 84.0645 9.84C84.7685 9.456 85.5525 9.264 86.4165 9.264C87.2592 9.264 88.0218 9.44533 88.7045 9.808C89.3872 10.1707 89.9205 10.6933 90.3045 11.376C90.6992 12.048 90.8965 12.832 90.8965 13.728ZM86.4325 11.152C85.8672 11.152 85.3925 11.312 85.0085 11.632C84.6245 11.952 84.3898 12.3893 84.3045 12.944H88.5445C88.4592 12.4 88.2245 11.968 87.8405 11.648C87.4565 11.3173 86.9872 11.152 86.4325 11.152Z" fill="#363636"/>
<path fill-rule="evenodd" clip-rule="evenodd" d="M104.668 8.16266C104.456 8.37966 104.456 8.73025 104.67 8.94577L107.097 11.3985L107.153 11.448C107.367 11.6131 107.673 11.5959 107.868 11.397C107.974 11.2885 108.027 11.1475 108.027 11.0065C108.027 10.8641 107.974 10.7224 107.866 10.6139L105.44 8.16118L105.384 8.11181C105.169 7.94728 104.863 7.96442 104.668 8.16266ZM98.4771 12.4506C98.2082 12.4848 98 12.7178 98 12.9999C98 13.3055 98.2444 13.5535 98.5455 13.5535H108.134L104.67 17.0542L104.621 17.1108C104.457 17.3273 104.474 17.6384 104.668 17.8373C104.881 18.0536 105.226 18.0543 105.439 17.8388L109.839 13.3918L109.888 13.3361C109.962 13.2387 110 13.1198 110 12.9999C110 12.9283 109.986 12.8567 109.959 12.7888C109.874 12.5814 109.676 12.4463 109.455 12.4463H98.5455L98.4771 12.4506Z" fill="#363636"/>
</svg>
