<svg width="178" height="24" viewBox="0 0 178 24" fill="none" xmlns="http://www.w3.org/2000/svg">
<path d="M27.552 12.176C28.192 12.3787 28.6933 12.72 29.056 13.2C29.4187 13.6693 29.6 14.2507 29.6 14.944C29.6 15.9253 29.216 16.6827 28.448 17.216C27.6907 17.7387 26.5813 18 25.12 18H19.328V6.8H24.8C26.1653 6.8 27.2107 7.06133 27.936 7.584C28.672 8.10667 29.04 8.816 29.04 9.712C29.04 10.256 28.9067 10.7413 28.64 11.168C28.384 11.5947 28.0213 11.9307 27.552 12.176ZM21.904 8.752V11.392H24.48C25.12 11.392 25.6053 11.28 25.936 11.056C26.2667 10.832 26.432 10.5013 26.432 10.064C26.432 9.62667 26.2667 9.30133 25.936 9.088C25.6053 8.864 25.12 8.752 24.48 8.752H21.904ZM24.928 16.048C25.6107 16.048 26.1227 15.936 26.464 15.712C26.816 15.488 26.992 15.1413 26.992 14.672C26.992 13.744 26.304 13.28 24.928 13.28H21.904V16.048H24.928ZM34.8584 9.264C36.1917 9.264 37.2157 9.584 37.9304 10.224C38.645 10.8533 39.0024 11.808 39.0024 13.088V18H36.6664V16.928C36.197 17.728 35.3224 18.128 34.0424 18.128C33.381 18.128 32.805 18.016 32.3144 17.792C31.8344 17.568 31.4664 17.2587 31.2104 16.864C30.9544 16.4693 30.8264 16.0213 30.8264 15.52C30.8264 14.72 31.125 14.0907 31.7224 13.632C32.3304 13.1733 33.2637 12.944 34.5224 12.944H36.5064C36.5064 12.4 36.341 11.984 36.0104 11.696C35.6797 11.3973 35.1837 11.248 34.5224 11.248C34.0637 11.248 33.6104 11.3227 33.1624 11.472C32.725 11.6107 32.3517 11.8027 32.0424 12.048L31.1464 10.304C31.6157 9.97333 32.1757 9.71733 32.8264 9.536C33.4877 9.35467 34.165 9.264 34.8584 9.264ZM34.6664 16.448C35.093 16.448 35.4717 16.352 35.8024 16.16C36.133 15.9573 36.3677 15.664 36.5064 15.28V14.4H34.7944C33.7704 14.4 33.2584 14.736 33.2584 15.408C33.2584 15.728 33.381 15.984 33.6264 16.176C33.8824 16.3573 34.229 16.448 34.6664 16.448ZM45.5151 18.128C44.5978 18.128 43.7711 17.9413 43.0351 17.568C42.3098 17.184 41.7391 16.656 41.3231 15.984C40.9178 15.312 40.7151 14.5493 40.7151 13.696C40.7151 12.8427 40.9178 12.08 41.3231 11.408C41.7391 10.736 42.3098 10.2133 43.0351 9.84C43.7711 9.456 44.5978 9.264 45.5151 9.264C46.4218 9.264 47.2111 9.456 47.8831 9.84C48.5658 10.2133 49.0618 10.752 49.3711 11.456L47.4351 12.496C46.9871 11.7067 46.3418 11.312 45.4991 11.312C44.8485 11.312 44.3098 11.5253 43.8831 11.952C43.4565 12.3787 43.2431 12.96 43.2431 13.696C43.2431 14.432 43.4565 15.0133 43.8831 15.44C44.3098 15.8667 44.8485 16.08 45.4991 16.08C46.3525 16.08 46.9978 15.6853 47.4351 14.896L49.3711 15.952C49.0618 16.6347 48.5658 17.168 47.8831 17.552C47.2111 17.936 46.4218 18.128 45.5151 18.128ZM54.4418 14.624L53.2418 15.808V18H50.7458V6.128H53.2418V12.848L56.8898 9.392H59.8658L56.2818 13.04L60.1858 18H57.1618L54.4418 14.624ZM71.3915 17.584C71.1462 17.7653 70.8422 17.904 70.4795 18C70.1275 18.0853 69.7542 18.128 69.3595 18.128C68.3355 18.128 67.5408 17.8667 66.9755 17.344C66.4208 16.8213 66.1435 16.0533 66.1435 15.04V11.504H64.8155V9.584H66.1435V7.488H68.6395V9.584H70.7835V11.504H68.6395V15.008C68.6395 15.3707 68.7302 15.6533 68.9115 15.856C69.1035 16.048 69.3702 16.144 69.7115 16.144C70.1062 16.144 70.4422 16.0373 70.7195 15.824L71.3915 17.584ZM76.623 18.128C75.7163 18.128 74.9003 17.9413 74.175 17.568C73.4603 17.184 72.9003 16.656 72.495 15.984C72.0897 15.312 71.887 14.5493 71.887 13.696C71.887 12.8427 72.0897 12.08 72.495 11.408C72.9003 10.736 73.4603 10.2133 74.175 9.84C74.9003 9.456 75.7163 9.264 76.623 9.264C77.5297 9.264 78.3403 9.456 79.055 9.84C79.7697 10.2133 80.3297 10.736 80.735 11.408C81.1403 12.08 81.343 12.8427 81.343 13.696C81.343 14.5493 81.1403 15.312 80.735 15.984C80.3297 16.656 79.7697 17.184 79.055 17.568C78.3403 17.9413 77.5297 18.128 76.623 18.128ZM76.623 16.08C77.263 16.08 77.7857 15.8667 78.191 15.44C78.607 15.0027 78.815 14.4213 78.815 13.696C78.815 12.9707 78.607 12.3947 78.191 11.968C77.7857 11.5307 77.263 11.312 76.623 11.312C75.983 11.312 75.455 11.5307 75.039 11.968C74.623 12.3947 74.415 12.9707 74.415 13.696C74.415 14.4213 74.623 15.0027 75.039 15.44C75.455 15.8667 75.983 16.08 76.623 16.08ZM92.7746 9.264C93.8413 9.264 94.7 9.584 95.3506 10.224C96.012 10.864 96.3426 11.8133 96.3426 13.072V18H93.8466V13.456C93.8466 12.7733 93.6973 12.2667 93.3986 11.936C93.1 11.5947 92.668 11.424 92.1026 11.424C91.4733 11.424 90.972 11.6213 90.5986 12.016C90.2253 12.4 90.0386 12.976 90.0386 13.744V18H87.5426V6.128H90.0386V10.288C90.3693 9.95733 90.7693 9.70667 91.2386 9.536C91.708 9.35467 92.22 9.264 92.7746 9.264ZM102.795 18.128C101.888 18.128 101.072 17.9413 100.347 17.568C99.6322 17.184 99.0722 16.656 98.6669 15.984C98.2615 15.312 98.0589 14.5493 98.0589 13.696C98.0589 12.8427 98.2615 12.08 98.6669 11.408C99.0722 10.736 99.6322 10.2133 100.347 9.84C101.072 9.456 101.888 9.264 102.795 9.264C103.702 9.264 104.512 9.456 105.227 9.84C105.942 10.2133 106.502 10.736 106.907 11.408C107.312 12.08 107.515 12.8427 107.515 13.696C107.515 14.5493 107.312 15.312 106.907 15.984C106.502 16.656 105.942 17.184 105.227 17.568C104.512 17.9413 103.702 18.128 102.795 18.128ZM102.795 16.08C103.435 16.08 103.958 15.8667 104.363 15.44C104.779 15.0027 104.987 14.4213 104.987 13.696C104.987 12.9707 104.779 12.3947 104.363 11.968C103.958 11.5307 103.435 11.312 102.795 11.312C102.155 11.312 101.627 11.5307 101.211 11.968C100.795 12.3947 100.587 12.9707 100.587 13.696C100.587 14.4213 100.795 15.0027 101.211 15.44C101.627 15.8667 102.155 16.08 102.795 16.08ZM120.207 9.264C121.285 9.264 122.138 9.584 122.767 10.224C123.407 10.8533 123.727 11.8027 123.727 13.072V18H121.231V13.456C121.231 12.7733 121.087 12.2667 120.799 11.936C120.522 11.5947 120.122 11.424 119.599 11.424C119.013 11.424 118.549 11.616 118.207 12C117.866 12.3733 117.695 12.9333 117.695 13.68V18H115.199V13.456C115.199 12.1013 114.655 11.424 113.567 11.424C112.991 11.424 112.533 11.616 112.191 12C111.85 12.3733 111.679 12.9333 111.679 13.68V18H109.183V9.392H111.567V10.384C111.887 10.0213 112.277 9.744 112.735 9.552C113.205 9.36 113.717 9.264 114.271 9.264C114.879 9.264 115.429 9.38667 115.919 9.632C116.41 9.86667 116.805 10.2133 117.103 10.672C117.455 10.224 117.898 9.87733 118.431 9.632C118.975 9.38667 119.567 9.264 120.207 9.264ZM134.49 13.728C134.49 13.76 134.474 13.984 134.442 14.4H127.93C128.048 14.9333 128.325 15.3547 128.762 15.664C129.2 15.9733 129.744 16.128 130.394 16.128C130.842 16.128 131.237 16.064 131.578 15.936C131.93 15.7973 132.256 15.584 132.554 15.296L133.882 16.736C133.072 17.664 131.888 18.128 130.33 18.128C129.36 18.128 128.501 17.9413 127.754 17.568C127.008 17.184 126.432 16.656 126.026 15.984C125.621 15.312 125.418 14.5493 125.418 13.696C125.418 12.8533 125.616 12.096 126.01 11.424C126.416 10.7413 126.965 10.2133 127.658 9.84C128.362 9.456 129.146 9.264 130.01 9.264C130.853 9.264 131.616 9.44533 132.298 9.808C132.981 10.1707 133.514 10.6933 133.898 11.376C134.293 12.048 134.49 12.832 134.49 13.728ZM130.026 11.152C129.461 11.152 128.986 11.312 128.602 11.632C128.218 11.952 127.984 12.3893 127.898 12.944H132.138C132.053 12.4 131.818 11.968 131.434 11.648C131.05 11.3173 130.581 11.152 130.026 11.152ZM141.24 9.264C142.04 9.264 142.765 9.45067 143.416 9.824C144.077 10.1867 144.595 10.704 144.968 11.376C145.341 12.0373 145.528 12.8107 145.528 13.696C145.528 14.5813 145.341 15.36 144.968 16.032C144.595 16.6933 144.077 17.2107 143.416 17.584C142.765 17.9467 142.04 18.128 141.24 18.128C140.141 18.128 139.277 17.7813 138.648 17.088V21.104H136.152V9.392H138.536V10.384C139.155 9.63733 140.056 9.264 141.24 9.264ZM140.808 16.08C141.448 16.08 141.971 15.8667 142.376 15.44C142.792 15.0027 143 14.4213 143 13.696C143 12.9707 142.792 12.3947 142.376 11.968C141.971 11.5307 141.448 11.312 140.808 11.312C140.168 11.312 139.64 11.5307 139.224 11.968C138.819 12.3947 138.616 12.9707 138.616 13.696C138.616 14.4213 138.819 15.0027 139.224 15.44C139.64 15.8667 140.168 16.08 140.808 16.08ZM150.53 9.264C151.864 9.264 152.888 9.584 153.602 10.224C154.317 10.8533 154.674 11.808 154.674 13.088V18H152.338V16.928C151.869 17.728 150.994 18.128 149.714 18.128C149.053 18.128 148.477 18.016 147.986 17.792C147.506 17.568 147.138 17.2587 146.882 16.864C146.626 16.4693 146.498 16.0213 146.498 15.52C146.498 14.72 146.797 14.0907 147.394 13.632C148.002 13.1733 148.936 12.944 150.194 12.944H152.178C152.178 12.4 152.013 11.984 151.682 11.696C151.352 11.3973 150.856 11.248 150.194 11.248C149.736 11.248 149.282 11.3227 148.834 11.472C148.397 11.6107 148.024 11.8027 147.714 12.048L146.818 10.304C147.288 9.97333 147.848 9.71733 148.498 9.536C149.16 9.35467 149.837 9.264 150.53 9.264ZM150.338 16.448C150.765 16.448 151.144 16.352 151.474 16.16C151.805 15.9573 152.04 15.664 152.178 15.28V14.4H150.466C149.442 14.4 148.93 14.736 148.93 15.408C148.93 15.728 149.053 15.984 149.298 16.176C149.554 16.3573 149.901 16.448 150.338 16.448ZM165.907 9.392V16.56C165.907 18.1387 165.496 19.312 164.675 20.08C163.854 20.848 162.654 21.232 161.075 21.232C160.243 21.232 159.454 21.1307 158.707 20.928C157.96 20.7253 157.342 20.432 156.851 20.048L157.843 18.256C158.206 18.5547 158.664 18.7893 159.219 18.96C159.774 19.1413 160.328 19.232 160.883 19.232C161.747 19.232 162.382 19.0347 162.787 18.64C163.203 18.256 163.411 17.6693 163.411 16.88V16.512C162.76 17.2267 161.854 17.584 160.691 17.584C159.902 17.584 159.176 17.4133 158.515 17.072C157.864 16.72 157.347 16.2293 156.963 15.6C156.579 14.9707 156.387 14.2453 156.387 13.424C156.387 12.6027 156.579 11.8773 156.963 11.248C157.347 10.6187 157.864 10.1333 158.515 9.792C159.176 9.44 159.902 9.264 160.691 9.264C161.939 9.264 162.888 9.67467 163.539 10.496V9.392H165.907ZM161.187 15.536C161.848 15.536 162.387 15.344 162.803 14.96C163.23 14.5653 163.443 14.0533 163.443 13.424C163.443 12.7947 163.23 12.288 162.803 11.904C162.387 11.5093 161.848 11.312 161.187 11.312C160.526 11.312 159.982 11.5093 159.555 11.904C159.128 12.288 158.915 12.7947 158.915 13.424C158.915 14.0533 159.128 14.5653 159.555 14.96C159.982 15.344 160.526 15.536 161.187 15.536ZM176.662 13.728C176.662 13.76 176.646 13.984 176.614 14.4H170.102C170.219 14.9333 170.497 15.3547 170.934 15.664C171.371 15.9733 171.915 16.128 172.566 16.128C173.014 16.128 173.409 16.064 173.75 15.936C174.102 15.7973 174.427 15.584 174.726 15.296L176.054 16.736C175.243 17.664 174.059 18.128 172.502 18.128C171.531 18.128 170.673 17.9413 169.926 17.568C169.179 17.184 168.603 16.656 168.198 15.984C167.793 15.312 167.59 14.5493 167.59 13.696C167.59 12.8533 167.787 12.096 168.182 11.424C168.587 10.7413 169.137 10.2133 169.83 9.84C170.534 9.456 171.318 9.264 172.182 9.264C173.025 9.264 173.787 9.44533 174.47 9.808C175.153 10.1707 175.686 10.6933 176.07 11.376C176.465 12.048 176.662 12.832 176.662 13.728ZM172.198 11.152C171.633 11.152 171.158 11.312 170.774 11.632C170.39 11.952 170.155 12.3893 170.07 12.944H174.31C174.225 12.4 173.99 11.968 173.606 11.648C173.222 11.3173 172.753 11.152 172.198 11.152Z" fill="#363636"/>
<path fill-rule="evenodd" clip-rule="evenodd" d="M5.33171 8.16266C5.54407 8.37966 5.54407 8.73025 5.33025 8.94577L2.90334 11.3985L2.84731 11.448C2.63299 11.6131 2.3271 11.5959 2.13244 11.397C2.02625 11.2885 1.97316 11.1475 1.97316 11.0065C1.97316 10.8641 2.02625 10.7224 2.13389 10.6139L4.56007 8.16118L4.61612 8.11181C4.83054 7.94728 5.13704 7.96442 5.33171 8.16266ZM11.5229 12.4507C11.7918 12.4849 12 12.7179 12 13C12 13.3056 11.7556 13.5535 11.4545 13.5535H1.86618L5.33018 17.0543L5.37918 17.1109C5.54253 17.3273 5.5263 17.6385 5.33164 17.8374C5.11927 18.0537 4.77382 18.0544 4.56073 17.8389L0.160727 13.3919L0.112206 13.3362C0.0383835 13.2388 0 13.1199 0 13C0 12.9284 0.0138178 12.8568 0.0414543 12.7889C0.125817 12.5815 0.324364 12.4464 0.545454 12.4464H11.4545L11.5229 12.4507Z" fill="#363636"/>
</svg>
